<svg xmlns="http://www.w3.org/2000/svg" xmlns:xlink="http://www.w3.org/1999/xlink" preserveAspectRatio="xMidYMid" width="250" height="250" viewBox="0 0 250 250">
  <defs>
    <style>
      .cls-1, .cls-2, .cls-3 {
        stroke: #2088ff;
      }

      .cls-1, .cls-2, .cls-3, .cls-6 {
        stroke-width: 11px;
        fill: none;
      }

      .cls-1, .cls-4, .cls-7 {
        fill-rule: evenodd;
      }

      .cls-2 {
        stroke-linecap: round;
      }

      .cls-4 {
        fill: #2088ff;
      }

      .cls-5, .cls-7 {
        fill: #79b8ff;
      }

      .cls-6 {
        stroke: #79b8ff;
      }
    </style>
  </defs>
  <g>
    <path d="M38.527,41.403 L38.527,67.538 C38.527,67.538 41.739,78.417 50.962,73.082 C59.141,68.351 71.874,61.296 73.502,58.034 C75.070,54.892 74.589,53.636 73.502,50.907 C73.004,49.656 56.147,36.685 50.185,34.276 C44.223,31.866 38.569,36.226 38.527,41.403 Z" class="cls-1"/>
    <circle cx="54.5" cy="55.484" r="45" class="cls-2"/>
  </g>
  <g>
    <circle cx="118.516" cy="129.547" r="29.984" class="cls-3"/>
    <path d="M101.519,131.544 C101.519,131.544 101.054,125.564 108.518,125.547 C109.968,126.755 114.517,131.544 114.517,131.544 L128.515,117.550 C128.515,117.550 132.281,116.460 134.514,119.549 C135.817,121.350 134.514,124.547 134.514,124.547 L117.516,141.540 C117.516,141.540 114.579,144.539 111.517,141.540 C108.455,138.542 101.519,131.544 101.519,131.544 Z" class="cls-4"/>
  </g>
  <g>
    <circle cx="209.5" cy="130.547" r="30" class="cls-3"/>
    <path d="M191.507,131.544 C191.507,131.544 191.042,125.564 198.506,125.547 C199.956,126.755 204.505,131.544 204.505,131.544 L218.503,117.550 C218.503,117.550 222.270,116.460 224.503,119.549 C225.805,121.350 224.503,124.547 224.503,124.547 L207.505,141.540 C207.505,141.540 204.568,144.539 201.506,141.540 C198.443,138.542 191.507,131.544 191.507,131.544 Z" class="cls-4"/>
  </g>
  <g>
    <circle cx="118.516" cy="209.516" r="29.984" class="cls-3"/>
    <circle cx="109.531" cy="209.516" r="5" class="cls-5"/>
    <circle cx="129.5" cy="209.516" r="5" class="cls-5"/>
  </g>
  <g>
    <circle cx="208.5" cy="209.516" r="30" class="cls-6"/>
    <path d="M168.510,214.512 C168.510,214.512 164.510,213.448 164.510,209.514 C164.510,205.642 168.510,204.516 168.510,204.516 L179.508,204.516 L179.508,214.512 L168.510,214.512 Z" class="cls-7"/>
  </g>
  <g>
    <path d="M153.512,124.547 L175.509,124.547 L175.509,134.543 L153.512,134.543 L153.512,124.547 Z" class="cls-4"/>
    <path d="M44.526,97.558 L44.526,176.527 C44.526,176.527 48.353,214.512 81.521,214.512 C83.332,214.512 87.539,214.521 89.520,214.512 C89.536,211.268 89.537,208.144 89.520,204.516 C89.520,204.516 85.944,204.516 83.521,204.516 C76.847,204.516 54.525,198.883 54.525,176.527 C54.525,147.732 54.525,97.558 54.525,97.558 L44.526,97.558 Z" class="cls-4"/>
    <path d="M54.525,104.555 C54.525,104.555 59.380,124.547 79.521,124.547 C93.111,124.547 90.520,124.547 90.520,124.547 L90.520,134.543 L79.521,134.543 C79.521,134.543 65.695,136.346 54.525,123.547 C54.525,113.473 54.525,104.555 54.525,104.555 Z" class="cls-4"/>
  </g>
</svg>
